<svg>
  <defs>
    <svg id="v1" viewBox="0 0 18 12">
      <path d="M12.125,2.151c-0.977-0.008-1.954-0.016-2.931-0.025c0.256,0.63,0.512,1.259,0.768,1.889
        c0.672,0.004,1.344,0.007,2.016,0.011c0.121,0.003,0.291,0.01,0.492,0.032c0.246,0.026,0.45,0.048,0.644,0.109
        c0.435,0.137,0.705,0.437,0.781,0.524c0.448,0.511,0.46,1.116,0.461,1.323c0.001,0.191-0.004,0.677-0.323,1.131
        c-0.168,0.238-0.361,0.379-0.444,0.438c-0.297,0.213-0.577,0.289-0.725,0.327c-0.235,0.061-0.44,0.076-0.587,0.077
        c-0.209,0.012-0.417,0.025-0.626,0.037c0.262,0.616,0.525,1.232,0.787,1.848c0.389,0.012,1.244-0.016,2.144-0.523
        c0.932-0.526,1.379-1.266,1.47-1.422c0.095-0.163,0.502-0.89,0.514-1.921c0.003-0.306,0-1.398-0.739-2.364
        c-0.444-0.58-0.969-0.874-1.069-0.929c-0.107-0.058-0.301-0.157-0.646-0.267C13.687,2.31,13.018,2.149,12.125,2.151z"/>
      <polygon points="6.775,2.107 4.603,2.107 7.835,9.893 10.007,9.893 	"/>
      <path d="M2.563,7.158L1.436,9.874h2.172l1.264-3.045H3.056C2.84,6.829,2.645,6.959,2.563,7.158z"/>
    </svg>

    <svg id="v2" viewBox="0 0 18 14.109">
      <path d="M12.125,2.151c-0.977-0.008-1.954-0.016-2.931-0.025c0.256,0.63,0.512,1.259,0.768,1.889
        c0.672,0.004,1.344,0.007,2.016,0.011c0.121,0.003,0.291,0.01,0.492,0.032c0.246,0.026,0.45,0.048,0.644,0.109
        c0.435,0.137,0.705,0.437,0.781,0.524c0.448,0.511,0.46,1.116,0.461,1.323c0.001,0.191-0.004,0.677-0.323,1.131
        c-0.168,0.238-0.361,0.379-0.444,0.438c-0.297,0.213-0.577,0.289-0.725,0.327c-0.235,0.061-0.44,0.076-0.587,0.077
        c-0.209,0.012-0.417,0.025-0.626,0.037c0.262,0.616,0.525,1.232,0.787,1.848c0.389,0.012,1.244-0.016,2.144-0.523
        c0.932-0.526,1.379-1.266,1.47-1.422c0.095-0.163,0.502-0.89,0.514-1.921c0.003-0.306,0-1.398-0.739-2.364
        c-0.444-0.58-0.969-0.874-1.069-0.929c-0.107-0.058-0.301-0.157-0.646-0.267C13.687,2.31,13.018,2.149,12.125,2.151z"/>
      <polygon points="6.775,2.107 4.603,2.107 7.835,9.893 10.007,9.893 	"/>
      <path d="M2.734,7.158L1.607,9.874h2.172l1.264-3.045H3.227C3.011,6.829,2.816,6.959,2.734,7.158z"/>
      <path stroke="#000000" stroke-width="0.02" stroke-miterlimit="10" d="M3.682,11.09c-0.073,0-0.125,0.039-0.154,0.117l-0.433,1.18
        h0.208l0.116-0.319h0.527l0.116,0.319h0.208l-0.433-1.18C3.807,11.129,3.755,11.09,3.682,11.09z M3.48,11.891l0.192-0.576
        l0.211,0.576H3.48z"/>
      <path stroke="#000000" stroke-width="0.02" stroke-miterlimit="10" d="M4.506,11.158c-0.065,0.053-0.098,0.125-0.098,0.216v0.199
        c0,0.081,0.03,0.145,0.09,0.192c0.055,0.043,0.125,0.064,0.21,0.064h0.206c0.108,0,0.162,0.045,0.162,0.133
        c0,0.095-0.004,0.152-0.014,0.173c-0.02,0.044-0.071,0.066-0.154,0.066h-0.5v0.185h0.557c0.093,0,0.167-0.023,0.221-0.07
        c0.054-0.047,0.081-0.114,0.081-0.203v-0.204c0-0.083-0.026-0.148-0.079-0.194s-0.123-0.069-0.21-0.069H4.772
        c-0.058,0-0.099-0.01-0.124-0.029c-0.031-0.024-0.046-0.059-0.046-0.104c0-0.086,0.006-0.141,0.018-0.164
        c0.02-0.04,0.07-0.06,0.151-0.06h0.496v-0.186H4.704C4.617,11.103,4.552,11.121,4.506,11.158z"/>
      <polygon stroke="#000000" stroke-width="0.02" stroke-miterlimit="10" points="5.419,11.288 5.749,11.288 5.749,12.387
        5.942,12.387 5.942,11.288 6.274,11.288 6.274,11.103 5.419,11.103 	"/>
      <path stroke="#000000" stroke-width="0.02" stroke-miterlimit="10" d="M7.042,11.103H6.392v1.284h0.193v-1.099h0.401
        c0.106,0,0.16,0.045,0.16,0.137v0.147c0,0.086-0.047,0.129-0.142,0.129H6.721c-0.08,0.002-0.12,0.038-0.12,0.11
        c0,0.037,0.008,0.064,0.024,0.081l0.474,0.494H7.34l-0.503-0.523h0.224c0.083,0,0.151-0.024,0.203-0.072s0.077-0.112,0.077-0.193
        v-0.222C7.34,11.194,7.241,11.103,7.042,11.103z"/>
      <rect x="7.54" y="11.103" stroke="#000000" stroke-width="0.02" stroke-miterlimit="10" width="0.193" height="1.284"/>
      <polygon stroke="#000000" stroke-width="0.02" stroke-miterlimit="10" points="7.899,11.288 8.228,11.288 8.228,12.387
        8.422,12.387 8.422,11.288 8.753,11.288 8.753,11.103 7.899,11.103 	"/>
      <path stroke="#000000" stroke-width="0.02" stroke-miterlimit="10" d="M9.93,11.103H9.256v1.284h0.678
        c0.092,0,0.162-0.026,0.213-0.08c0.049-0.053,0.074-0.125,0.074-0.215v-0.7C10.221,11.199,10.123,11.103,9.93,11.103z
        M10.031,12.034c0,0.111-0.053,0.168-0.16,0.168H9.449v-0.914h0.422c0.107,0,0.16,0.051,0.16,0.152V12.034z"/>
      <path stroke="#000000" stroke-width="0.02" stroke-miterlimit="10" d="M10.51,11.179c-0.051,0.051-0.078,0.12-0.078,0.209v0.726
        c0,0.09,0.029,0.158,0.088,0.206c0.055,0.045,0.129,0.067,0.225,0.067h0.553v-0.185h-0.502c-0.111,0-0.168-0.049-0.168-0.147
        v-0.217h0.67v-0.185h-0.67v-0.221c0-0.097,0.055-0.145,0.166-0.145h0.504v-0.186h-0.57C10.635,11.103,10.562,11.128,10.51,11.179z"
        />
      <path stroke="#000000" stroke-width="0.02" stroke-miterlimit="10" d="M12.66,11.09c-0.074,0-0.129,0.04-0.158,0.121l-0.344,0.916
        l-0.338-0.916c-0.029-0.081-0.084-0.121-0.162-0.121c-0.051,0-0.092,0.016-0.121,0.048s-0.045,0.073-0.045,0.123v1.126h0.188
        v-1.019l0.348,0.913c0.018,0.042,0.031,0.071,0.045,0.086c0.021,0.027,0.051,0.041,0.088,0.041c0.061,0,0.105-0.045,0.139-0.133
        l0.342-0.907v1.019h0.186v-1.118c0-0.053-0.014-0.096-0.043-0.129C12.756,11.106,12.715,11.09,12.66,11.09z"/>
      <rect x="13.043" y="11.103" stroke="#000000" stroke-width="0.02" stroke-miterlimit="10" width="0.195" height="1.284"/>
      <path stroke="#000000" stroke-width="0.02" stroke-miterlimit="10" d="M14.107,11.103h-0.65v1.284h0.193v-1.099h0.402
        c0.105,0,0.158,0.045,0.158,0.137v0.147c0,0.086-0.047,0.129-0.141,0.129h-0.283c-0.08,0.002-0.121,0.038-0.121,0.11
        c0,0.037,0.008,0.064,0.025,0.081l0.473,0.494h0.242l-0.504-0.523h0.223c0.084,0,0.152-0.024,0.203-0.072s0.078-0.112,0.078-0.193
        v-0.222C14.406,11.194,14.307,11.103,14.107,11.103z"/>
      <rect x="14.605" y="11.103" stroke="#000000" stroke-width="0.02" stroke-miterlimit="10" width="0.193" height="1.284"/>
    </svg>
  </defs>
</svg>
