<svg>
  <defs>
    <svg id="facebook" viewBox="0 0 24 24">
      <path d="M17,2V2H17V6H15C14.31,6 14,6.81 14,7.5V10H14L17,10V14H14V22H10V14H7V10H10V6A4,4 0 0,1 14,2H17Z"/>
    </svg>

    <svg id="github" viewBox="0 0 24 24">
      <path d="M12,2A10,10 0 0,0 2,12C2,16.42 4.87,20.17 8.84,21.5C9.34,21.58 9.5,21.27 9.5,21C9.5,20.77 9.5,20.14 9.5,19.31C6.73,19.91 6.14,17.97 6.14,17.97C5.68,16.81 5.03,16.5 5.03,16.5C4.12,15.88 5.1,15.9 5.1,15.9C6.1,15.97 6.63,16.93 6.63,16.93C7.5,18.45 8.97,18 9.54,17.76C9.63,17.11 9.89,16.67 10.17,16.42C7.95,16.17 5.62,15.31 5.62,11.5C5.62,10.39 6,9.5 6.65,8.79C6.55,8.54 6.2,7.5 6.75,6.15C6.75,6.15 7.59,5.88 9.5,7.17C10.29,6.95 11.15,6.84 12,6.84C12.85,6.84 13.71,6.95 14.5,7.17C16.41,5.88 17.25,6.15 17.25,6.15C17.8,7.5 17.45,8.54 17.35,8.79C18,9.5 18.38,10.39 18.38,11.5C18.38,15.32 16.04,16.16 13.81,16.41C14.17,16.72 14.5,17.33 14.5,18.26C14.5,19.6 14.5,20.68 14.5,21C14.5,21.27 14.66,21.59 15.17,21.5C19.14,20.16 22,16.42 22,12A10,10 0 0,0 12,2Z"/>
    </svg>

    <svg id="linkedin" viewBox="0 0 24 24">
      <path d="M19 0h-14c-2.761 0-5 2.239-5 5v14c0 2.761 2.239 5 5 5h14c2.762 0 5-2.239 5-5v-14c0-2.761-2.238-5-5-5zm-11 19h-3v-11h3v11zm-1.5-12.268c-.966 0-1.75-.79-1.75-1.764s.784-1.764 1.75-1.764 1.75.79 1.75 1.764-.783 1.764-1.75 1.764zm13.5 12.268h-3v-5.604c0-3.368-4-3.113-4 0v5.604h-3v-11h3v1.765c1.396-2.586 7-2.777 7 2.476v6.759z"/>
    </svg>

    <svg id="instagram" viewBox="0 0 24 24">
      <path d="M7.8,2H16.2C19.4,2 22,4.6 22,7.8V16.2A5.8,5.8 0 0,1 16.2,22H7.8C4.6,22 2,19.4 2,16.2V7.8A5.8,5.8 0 0,1 7.8,2M7.6,4A3.6,3.6 0 0,0 4,7.6V16.4C4,18.39 5.61,20 7.6,20H16.4A3.6,3.6 0 0,0 20,16.4V7.6C20,5.61 18.39,4 16.4,4H7.6M17.25,5.5A1.25,1.25 0 0,1 18.5,6.75A1.25,1.25 0 0,1 17.25,8A1.25,1.25 0 0,1 16,6.75A1.25,1.25 0 0,1 17.25,5.5M12,7A5,5 0 0,1 17,12A5,5 0 0,1 12,17A5,5 0 0,1 7,12A5,5 0 0,1 12,7M12,9A3,3 0 0,0 9,12A3,3 0 0,0 12,15A3,3 0 0,0 15,12A3,3 0 0,0 12,9Z"/>
    </svg>

    <svg id="skype" viewBox="0 0 24 24">
      <path d="M22.987 13.966c1.357-7.765-5.416-14.412-13.052-12.979-5.821-3.561-12.503 3.226-8.935 9.029-1.387 7.747 5.384 14.48 13.083 13.01 5.832 3.536 12.493-3.26 8.904-9.06zm-10.603 5.891c-3.181 0-6.378-1.448-6.362-3.941.005-.752.564-1.442 1.309-1.442 1.873 0 1.855 2.795 4.837 2.795 2.093 0 2.807-1.146 2.807-1.944 0-2.886-9.043-1.117-9.043-6.543 0-2.938 2.402-4.962 6.179-4.741 3.602.213 5.713 1.803 5.917 3.289.101.971-.542 1.727-1.659 1.727-1.628 0-1.795-2.181-4.6-2.181-1.266 0-2.334.528-2.334 1.674 0 2.395 8.99 1.005 8.99 6.276-.001 3.039-2.423 5.031-6.041 5.031z"/>
    </svg>

    <svg id="twitter" viewBox="0 0 24 24">
      <path d="M22.46,6C21.69,6.35 20.86,6.58 20,6.69C20.88,6.16 21.56,5.32 21.88,4.31C21.05,4.81 20.13,5.16 19.16,5.36C18.37,4.5 17.26,4 16,4C13.65,4 11.73,5.92 11.73,8.29C11.73,8.63 11.77,8.96 11.84,9.27C8.28,9.09 5.11,7.38 3,4.79C2.63,5.42 2.42,6.16 2.42,6.94C2.42,8.43 3.17,9.75 4.33,10.5C3.62,10.5 2.96,10.3 2.38,10C2.38,10 2.38,10 2.38,10.03C2.38,12.11 3.86,13.85 5.82,14.24C5.46,14.34 5.08,14.39 4.69,14.39C4.42,14.39 4.15,14.36 3.89,14.31C4.43,16 6,17.26 7.89,17.29C6.43,18.45 4.58,19.13 2.56,19.13C2.22,19.13 1.88,19.11 1.54,19.07C3.44,20.29 5.7,21 8.12,21C16,21 20.33,14.46 20.33,8.79C20.33,8.6 20.33,8.42 20.32,8.23C21.16,7.63 21.88,6.87 22.46,6Z"/>
    </svg>
  </defs>
</svg>
